<svg width="37" height="43" viewBox="0 0 37 43" fill="none" xmlns="http://www.w3.org/2000/svg">
<path d="M5.61241 41.6545L5.61035 41.653L1.56267 38.617C0.82661 38.065 0.5 37.3785 0.5 36.735C0.5 36.092 0.826139 35.4097 1.56062 34.8647L1.56267 34.8631L18.828 21.9134L19.3613 21.5134L18.828 21.1134L1.56267 8.16374C0.82661 7.61166 0.5 6.92521 0.5 6.28175C0.5 5.6387 0.826139 4.95639 1.56062 4.41137L1.56064 4.41139L1.56521 4.40791L5.59366 1.34612C6.33472 0.790799 7.32545 0.5 8.3349 0.5C9.34508 0.5 10.3307 0.791164 11.0619 1.3455L11.0639 1.34704L35.4216 19.6163L35.4237 19.6178C36.1685 20.1706 36.4982 20.8573 36.5 21.5014C36.5017 22.1456 36.1756 22.8316 35.4396 23.3837L11.0818 41.653C10.3407 42.2089 9.34939 42.5 8.33938 42.5C7.32921 42.5 6.3436 42.2088 5.61241 41.6545Z" fill="black" stroke="black"/>
</svg>
